<svg width="106" height="24" viewBox="0 0 106 24" fill="none" xmlns="http://www.w3.org/2000/svg">
<path d="M7.72147 19.9414V13.3901H24.0935V19.9414H7.72147ZM21.5624 0L30.467 23.968H21.5624L16.1161 3.66178L17.109 3.64314L8.8108 23.968H0L10.5409 0H21.5624Z" fill="#292D33"/>
<path d="M54.1621 24V18.1518L68.5477 4.88948L74.7634 6.32756H54.2582V0H77.9032V5.8482L63.5496 19.1105L58.2311 17.6724H77.9993V24H54.1621Z" fill="#292D33"/>
<path d="M47.3972 20.3249L44.9943 20.3569L50.0565 0H58.803L52.0427 23.968H41.4059L35.1903 4.50599H38.3942L32.1786 23.968H21.5415L14.7812 0H23.56L28.6222 20.3249L26.2193 20.2929L32.4669 0H41.1175L47.3972 20.3249Z" fill="#CFF43F"/>
<path d="M82.1179 23.9162C81.9089 23.9162 81.718 23.865 81.5453 23.7626C81.3817 23.6602 81.2499 23.5252 81.15 23.3577C81.05 23.1809 81 22.9854 81 22.7713C81 22.5572 81.05 22.3664 81.15 22.1989C81.2499 22.022 81.3817 21.8824 81.5453 21.78C81.718 21.6776 81.9089 21.6264 82.1179 21.6264C82.3269 21.6264 82.5132 21.6776 82.6768 21.78C82.8495 21.8824 82.9858 22.022 83.0858 22.1989C83.1858 22.3664 83.2358 22.5572 83.2358 22.7713C83.2358 22.9854 83.1858 23.1809 83.0858 23.3577C82.9858 23.5252 82.8495 23.6602 82.6768 23.7626C82.5132 23.865 82.3269 23.9162 82.1179 23.9162ZM86.2733 18.0523H90.4314C91.0312 18.0523 91.5038 17.9127 91.8492 17.6334C92.2036 17.3542 92.3808 16.9726 92.3808 16.4886C92.3808 15.9953 92.2036 15.6136 91.8492 15.3437C91.5038 15.0645 91.0312 14.9249 90.4314 14.9249H86.0143L86.8187 13.8917V23.8045H85.0191V13.3333H90.5949C91.3129 13.3333 91.94 13.4682 92.4763 13.7381C93.0216 13.9988 93.4442 14.3664 93.7441 14.8411C94.0531 15.3065 94.2076 15.8556 94.2076 16.4886C94.2076 17.1029 94.0531 17.6474 93.7441 18.1221C93.4442 18.5875 93.0216 18.9551 92.4763 19.225C91.94 19.4857 91.3129 19.616 90.5949 19.616H86.2733V18.0523ZM88.291 18.9039H90.4041L94.4667 23.8045H92.3127L88.291 18.9039ZM97.7324 19.3088C97.7324 19.9324 97.8551 20.4723 98.1005 20.9284C98.3458 21.3844 98.6957 21.7381 99.1502 21.9894C99.6137 22.2315 100.164 22.3525 100.8 22.3525C101.445 22.3525 101.995 22.2315 102.449 21.9894C102.904 21.7381 103.254 21.3844 103.499 20.9284C103.744 20.4723 103.867 19.9324 103.867 19.3088V13.3333H105.667V19.3786C105.667 20.3001 105.462 21.1099 105.053 21.8079C104.644 22.4967 104.076 23.0366 103.349 23.4275C102.622 23.8091 101.772 23.9999 100.8 23.9999C99.8364 23.9999 98.9866 23.8091 98.2504 23.4275C97.5233 23.0366 96.9553 22.4967 96.5463 21.8079C96.1373 21.1099 95.9328 20.3001 95.9328 19.3786V13.3333H97.7324V19.3088Z" fill="#292D33"/>
</svg>
