<svg width="106" height="45" viewBox="0 0 106 45" fill="none" xmlns="http://www.w3.org/2000/svg">
<path d="M7.72147 30.4414V23.8901H24.0935V30.4414H7.72147ZM21.5624 10.5L30.467 34.468H21.5624L16.1161 14.1618L17.109 14.1431L8.8108 34.468H0L10.5409 10.5H21.5624Z" fill="white"/>
<path d="M54.1621 34.5V28.6518L68.5477 15.3895L74.7634 16.8276H54.2582V10.5H77.9032V16.3482L63.5496 29.6105L58.2311 28.1724H77.9993V34.5H54.1621Z" fill="white"/>
<path d="M47.3972 30.8249L44.9943 30.8569L50.0565 10.5H58.803L52.0427 34.468H41.4059L35.1903 15.006H38.3942L32.1786 34.468H21.5415L14.7812 10.5H23.56L28.6222 30.8249L26.2193 30.7929L32.4669 10.5H41.1175L47.3972 30.8249Z" fill="#CFF43F"/>
<path d="M82.1179 34.4163C81.9089 34.4163 81.718 34.3651 81.5453 34.2627C81.3817 34.1603 81.2499 34.0253 81.15 33.8578C81.05 33.681 81 33.4855 81 33.2714C81 33.0573 81.05 32.8665 81.15 32.699C81.2499 32.5222 81.3817 32.3825 81.5453 32.2801C81.718 32.1777 81.9089 32.1266 82.1179 32.1266C82.3269 32.1266 82.5132 32.1777 82.6768 32.2801C82.8495 32.3825 82.9858 32.5222 83.0858 32.699C83.1858 32.8665 83.2358 33.0573 83.2358 33.2714C83.2358 33.4855 83.1858 33.681 83.0858 33.8578C82.9858 34.0253 82.8495 34.1603 82.6768 34.2627C82.5132 34.3651 82.3269 34.4163 82.1179 34.4163ZM86.2733 28.5524H90.4314C91.0312 28.5524 91.5038 28.4128 91.8492 28.1335C92.2036 27.8543 92.3808 27.4727 92.3808 26.9887C92.3808 26.4954 92.2036 26.1138 91.8492 25.8438C91.5038 25.5646 91.0312 25.425 90.4314 25.425H86.0143L86.8187 24.3918V34.3046H85.0191V23.8334H90.5949C91.3129 23.8334 91.94 23.9683 92.4763 24.2383C93.0216 24.4989 93.4442 24.8665 93.7441 25.3412C94.0531 25.8066 94.2076 26.3558 94.2076 26.9887C94.2076 27.603 94.0531 28.1475 93.7441 28.6222C93.4442 29.0876 93.0216 29.4552 92.4763 29.7252C91.94 29.9858 91.3129 30.1161 90.5949 30.1161H86.2733V28.5524ZM88.291 29.4041H90.4041L94.4667 34.3046H92.3127L88.291 29.4041ZM97.7324 29.8089C97.7324 30.4325 97.8551 30.9724 98.1005 31.4285C98.3458 31.8846 98.6957 32.2383 99.1502 32.4896C99.6137 32.7316 100.164 32.8526 100.8 32.8526C101.445 32.8526 101.995 32.7316 102.449 32.4896C102.904 32.2383 103.254 31.8846 103.499 31.4285C103.744 30.9724 103.867 30.4325 103.867 29.8089V23.8334H105.667V29.8787C105.667 30.8002 105.462 31.61 105.053 32.3081C104.644 32.9969 104.076 33.5367 103.349 33.9276C102.622 34.3092 101.772 34.5 100.8 34.5C99.8364 34.5 98.9866 34.3092 98.2504 33.9276C97.5233 33.5367 96.9553 32.9969 96.5463 32.3081C96.1373 31.61 95.9328 30.8002 95.9328 29.8787V23.8334H97.7324V29.8089Z" fill="white"/>
</svg>
